HIERARCHY
ROOT Hips
{
	OFFSET 0.00000 0.00000 0.00000
	CHANNELS 6 Xposition Yposition Zposition Zrotation Yrotation Xrotation 
	JOINT LHipJoint
	{
		OFFSET 0 0 0
		CHANNELS 3 Zrotation Yrotation Xrotation
		JOINT LeftUpLeg
		{
			OFFSET 1.53139 -1.83434 0.76626
			CHANNELS 3 Zrotation Yrotation Xrotation
			JOINT LeftLeg
			{
				OFFSET 2.56112 -7.03663 0.00000
				CHANNELS 3 Zrotation Yrotation Xrotation
				JOINT LeftFoot
				{
					OFFSET 2.59983 -7.14299 0.00000
					CHANNELS 3 Zrotation Yrotation Xrotation
					JOINT LeftToeBase
					{
						OFFSET 0.13742 -0.37757 2.00054
						CHANNELS 3 Zrotation Yrotation Xrotation
						End Site
						{
							OFFSET 0.00000 -0.00000 1.02897
						}
					}
				}
			}
		}
	}
	JOINT RHipJoint
	{
		OFFSET 0 0 0
		CHANNELS 3 Zrotation Yrotation Xrotation
		JOINT RightUpLeg
		{
			OFFSET -1.40122 -1.83435 0.76627
			CHANNELS 3 Zrotation Yrotation Xrotation
			JOINT RightLeg
			{
				OFFSET -2.54052 -6.98003 0.00000
				CHANNELS 3 Zrotation Yrotation Xrotation
				JOINT RightFoot
				{
					OFFSET -2.63179 -7.23079 0.00000
					CHANNELS 3 Zrotation Yrotation Xrotation
					JOINT RightToeBase
					{
						OFFSET -0.24131 -0.66299 2.03908
						CHANNELS 3 Zrotation Yrotation Xrotation
						End Site
						{
							OFFSET -0.00000 -0.00000 1.07391
						}
					}
				}
			}
		}
	}
	JOINT LowerBack
	{
		OFFSET 0 0 0
		CHANNELS 3 Zrotation Yrotation Xrotation
		JOINT Spine
		{
			OFFSET 0.01174 2.10302 -0.29778
			CHANNELS 3 Zrotation Yrotation Xrotation
			JOINT Spine1
			{
				OFFSET 0.00772 2.13227 -0.01247
				CHANNELS 3 Zrotation Yrotation Xrotation
				JOINT Neck
				{
					OFFSET 0 0 0
					CHANNELS 3 Zrotation Yrotation Xrotation
					JOINT Neck1
					{
						OFFSET -0.09219 1.60848 0.31481
						CHANNELS 3 Zrotation Yrotation Xrotation
						JOINT Head
						{
							OFFSET 0.13974 1.65456 -0.31134
							CHANNELS 3 Zrotation Yrotation Xrotation
							End Site
							{
								OFFSET 0.04742 1.69515 -0.14578
							}
						}
					}
				}
				JOINT LeftShoulder
				{
					OFFSET 0 0 0
					CHANNELS 3 Zrotation Yrotation Xrotation
					JOINT LeftArm
					{
						OFFSET 3.24909 1.02882 -0.23993
						CHANNELS 3 Zrotation Yrotation Xrotation
						JOINT LeftForeArm
						{
							OFFSET 5.32955 -0.00000 -0.00000
							CHANNELS 3 Zrotation Yrotation Xrotation
							JOINT LeftHand
							{
								OFFSET 3.69232 -0.00000 -0.00000
								CHANNELS 3 Zrotation Yrotation Xrotation
								JOINT LeftFingerBase
								{
									OFFSET 0 0 0
									CHANNELS 3 Zrotation Yrotation Xrotation
									JOINT LeftHandIndex1
									{
										OFFSET 0.53660 -0.00000 -0.00000
										CHANNELS 3 Zrotation Yrotation Xrotation
										End Site
										{
											OFFSET 0.43262 -0.00000 -0.00000
										}
									}
								}
								JOINT LThumb
								{
									OFFSET 0 0 0
									CHANNELS 3 Zrotation Yrotation Xrotation
									End Site
									{
										OFFSET 0.43922 -0.00000 0.43922
									}
								}
							}
						}
					}
				}
				JOINT RightShoulder
				{
					OFFSET 0 0 0
					CHANNELS 3 Zrotation Yrotation Xrotation
					JOINT RightArm
					{
						OFFSET -3.21387 0.93002 -0.34594
						CHANNELS 3 Zrotation Yrotation Xrotation
						JOINT RightForeArm
						{
							OFFSET -5.23431 -0.00000 0.00000
							CHANNELS 3 Zrotation Yrotation Xrotation
							JOINT RightHand
							{
								OFFSET -3.55301 -0.00000 -0.00000
								CHANNELS 3 Zrotation Yrotation Xrotation
								JOINT RightFingerBase
								{
									OFFSET 0 0 0
									CHANNELS 3 Zrotation Yrotation Xrotation
									JOINT RightHandIndex1
									{
										OFFSET -0.77252 -0.00000 -0.00000
										CHANNELS 3 Zrotation Yrotation Xrotation
										End Site
										{
											OFFSET -0.62283 -0.00000 -0.00000
										}
									}
								}
								JOINT RThumb
								{
									OFFSET 0 0 0
									CHANNELS 3 Zrotation Yrotation Xrotation
									End Site
									{
										OFFSET -0.63234 -0.00000 0.63234
									}
								}
							}
						}
					}
				}
			}
		}
	}
}
MOTION
Frames: 6
Frame Time: .0083333
-15.955 17.7719 14.3746 0 0 0 0 0 0 -21 0 0 0 0 0 0 0 0 0 0 0 0 0 0 21 0 0 0 0 0 0 0 0 0 0 0 0 0 0 0 0 0 0 0 0 0 0 -16 0 0 21 0 0 11 0 0 0 -8 0 0 0 0 0 0 0 0 0 0 0 0 0 0 0 0 0 0 0 0 8 0 0 0 0 0 0 0 0 0 0 0 0 0 0 0 0 0
-15.9550 17.7719 14.3746 4.0884 33.4101 3.1843 0.0000 0.0000 0.0000 -20.9799 -4.6937 -2.8252 1.0805 6.6071 18.5563 0.3136 2.6406 -11.8838 0.8613 -5.9181 -16.5471 0.0000 0.0000 0.0000 15.5699 3.9178 -12.2097 -3.3008 -11.1668 32.8445 -1.0697 1.1782 -19.1937 -0.1378 -2.3923 6.5913 -3.8479 -2.3869 7.4559 -0.4834 -3.5374 -0.3143 2.0403 -1.6697 -4.3042 -19.5438 -15.6964 0.2134 9.1092 -22.5345 24.0290 3.6016 -11.4527 11.0661 0.0000 0.0000 0.0000 -89.1899 4.9952 16.2547 15.2563 -24.5019 -3.3315 -0.0000 -0.0000 6.4230 18.7211 24.1504 7.8938 -7.1250 0.0000 -0.0000 -11.3623 54.9532 -2.8042 0.0000 0.0000 0.0000 89.3703 1.6305 20.1078 -13.9302 22.6349 -2.8012 0.0000 0.0000 10.0347 -11.9448 5.8746 -1.2404 7.1250 -0.0000 -0.0000 10.9225 -23.9867 5.6379
-15.9549 17.7714 14.3791 4.0388 33.4613 3.1087 0.0000 0.0000 0.0000 -20.9152 -4.5386 -2.8657 1.0908 6.6373 18.6452 0.3207 2.4746 -11.8974 0.8713 -5.9514 -16.6434 0.0000 0.0000 0.0000 15.6317 3.8998 -12.0736 -3.2804 -11.1357 32.7389 -1.0684 1.1655 -19.1848 -0.1737 -2.6850 7.4030 -3.7785 -2.3518 7.4628 -0.5007 -3.4856 -0.3146 1.9788 -1.6455 -4.3166 -19.4599 -15.7442 0.2418 9.0143 -22.5902 24.0478 3.5506 -11.4801 11.0534 0.0000 0.0000 0.0000 -89.1692 4.9347 16.3311 15.2201 -24.4519 -3.3165 -0.0000 -0.0000 6.6349 18.7785 24.0837 7.8992 -7.1250 0.0000 -0.0000 -11.2733 54.8974 -2.7664 0.0000 0.0000 0.0000 89.4315 1.6296 19.9624 -13.9496 22.6626 -2.8087 0.0000 0.0000 10.1266 -13.2949 6.8887 -1.6234 7.1250 -0.0000 -0.0000 9.8718 -22.9289 5.3228
-15.9567 17.7715 14.3815 3.9287 33.5282 3.0454 0.0000 0.0000 0.0000 -20.8005 -4.6176 -2.8863 1.0996 6.6632 18.7214 0.3196 2.4826 -11.8845 0.8925 -6.0214 -16.8465 0.0000 0.0000 0.0000 15.7590 3.9287 -11.9992 -3.2677 -11.1163 32.6733 -1.0680 1.0541 -19.2130 -0.1690 -2.6482 7.3007 -3.7316 -2.3571 7.4581 -0.4606 -3.4875 -0.3405 1.9949 -1.6463 -4.3412 -19.4222 -15.7287 0.3378 8.9756 -22.5723 24.0053 3.5460 -11.4766 11.0065 -0.0000 0.0000 0.0000 -89.2030 4.9451 16.4085 15.2663 -24.5158 -3.3357 -0.0000 -0.0000 6.6272 18.9754 24.5598 8.1335 -7.1250 0.0000 -0.0000 -11.2879 55.4153 -2.9129 -0.0000 0.0000 0.0000 89.3991 1.6412 20.1318 -13.9508 22.6643 -2.8091 0.0000 0.0000 9.8922 -13.8041 7.1981 -1.7634 7.1250 -0.0000 -0.0000 9.4853 -22.5985 5.1814
-15.9588 17.7709 14.3810 3.9056 33.6029 3.0294 0.0000 0.0000 0.0000 -20.7693 -4.6957 -2.9520 1.1151 6.7085 18.8545 0.3240 2.4247 -11.9204 0.8947 -6.0287 -16.8678 0.0000 0.0000 0.0000 15.8045 3.9297 -11.9200 -3.2446 -11.0808 32.5530 -1.0612 0.9262 -19.1870 -0.1594 -2.5726 7.0910 -3.7056 -2.3639 7.5093 -0.4739 -3.4994 -0.4093 1.9727 -1.6498 -4.4434 -19.4226 -15.6915 0.5230 9.0087 -22.5571 23.9775 3.5778 -11.4758 10.9640 0.0000 -0.0000 0.0000 -89.1379 5.0066 16.6084 15.3090 -24.5749 -3.3534 -0.0000 -0.0000 6.4670 18.9621 24.8993 8.2313 -7.1250 0.0000 -0.0000 -11.4605 55.7536 -3.0529 0.0000 -0.0000 0.0000 89.3976 1.5900 20.3536 -13.9489 22.6616 -2.8084 0.0000 0.0000 9.6296 -13.7181 6.7710 -1.6486 7.1250 -0.0000 -0.0000 9.5692 -23.0346 5.1315
-15.9597 17.7764 14.3802 3.8853 33.6917 3.0151 0.0000 0.0000 0.0000 -20.7227 -4.7854 -3.0126 1.1306 6.7533 18.9865 0.3366 2.1966 -11.9880 0.6596 -5.1944 -14.4639 0.0000 0.0000 0.0000 15.8332 3.8600 -11.8618 -3.2206 -11.0438 32.4279 -1.0544 0.8809 -19.1375 -0.1509 -2.5033 6.8988 -3.8271 -2.3782 7.3749 -0.3839 -3.5162 -0.3192 2.1255 -1.6599 -4.2599 -19.4886 -15.6930 0.5256 9.0765 -22.5576 23.8412 3.6110 -11.4756 10.9297 -0.0000 -0.0000 0.0000 -89.2884 4.6590 16.4815 15.2632 -24.5115 -3.3344 -0.0000 -0.0000 6.5618 18.5104 24.6857 7.9598 -7.1250 0.0000 -0.0000 -11.8261 55.4485 -3.0642 -0.0000 -0.0000 0.0000 89.2660 1.8237 20.4825 -13.9572 22.6735 -2.8116 0.0000 0.0000 9.3671 -13.7578 6.6204 -1.6169 7.1250 -0.0000 -0.0000 9.5481 -23.1862 5.0862
